<svg xmlns="http://www.w3.org/2000/svg" xmlns:xlink="http://www.w3.org/1999/xlink" viewBox="0 0 1072.49 212.14"><defs><style>.cls-1{fill:#003e6a;}.cls-2{fill:#69b342;}.cls-3{fill:#a8b6cc;}.cls-3,.cls-4,.cls-5{fill-rule:evenodd;}.cls-4{fill:url(#linear-gradient);}.cls-5{fill:url(#linear-gradient-2);}</style><linearGradient id="linear-gradient" x1="120.66" y1="90.74" x2="216.13" y2="90.74" gradientUnits="userSpaceOnUse"><stop offset="0" stop-color="#003e6a"/><stop offset="0.15" stop-color="#003e6a" stop-opacity="0.86"/><stop offset="0.49" stop-color="#003e6a" stop-opacity="0.58"/><stop offset="0.78" stop-color="#003e6a" stop-opacity="0.41"/><stop offset="1" stop-color="#003e6a" stop-opacity="0.35"/></linearGradient><linearGradient id="linear-gradient-2" x1="140.61" y1="133.58" x2="0" y2="133.58" gradientUnits="userSpaceOnUse"><stop offset="0" stop-color="#69b342"/><stop offset="0.12" stop-color="#69b342" stop-opacity="0.88"/><stop offset="0.39" stop-color="#69b342" stop-opacity="0.65"/><stop offset="0.64" stop-color="#69b342" stop-opacity="0.49"/><stop offset="0.85" stop-color="#69b342" stop-opacity="0.39"/><stop offset="1" stop-color="#69b342" stop-opacity="0.35"/></linearGradient></defs><title>Asset 1</title><g id="Layer_2" data-name="Layer 2"><g id="Layer_1-2" data-name="Layer 1"><path class="cls-1" d="M369.83,127.67a30.76,30.76,0,0,1-2.95,13.75,28.91,28.91,0,0,1-7.92,9.93,34.84,34.84,0,0,1-11.31,6,43,43,0,0,1-13.1,2,38.69,38.69,0,0,1-13.61-2.24A30.31,30.31,0,0,1,310.07,150l-6.48,6.48H300L298.55,155V123.35l1.44-1.44h2.88l1.44,1.44,2.88,7.2q4.32,10.8,11.52,16.56a24.78,24.78,0,0,0,15.84,5.76,21.14,21.14,0,0,0,7.92-1.44,18.59,18.59,0,0,0,6.12-3.89,17.45,17.45,0,0,0,4-5.91,19.21,19.21,0,0,0,1.44-7.48,17.41,17.41,0,0,0-1.3-6.84,16.4,16.4,0,0,0-4.32-5.83,39.46,39.46,0,0,0-8-5.4,135.54,135.54,0,0,0-12.31-5.69q-14.54-5.91-20.59-12.89a24.57,24.57,0,0,1-6.05-16.63,24.09,24.09,0,0,1,3-12,27,27,0,0,1,7.84-8.79,37.39,37.39,0,0,1,11.09-5.4A43.82,43.82,0,0,1,336,52.79a32.64,32.64,0,0,1,11.59,2.09,25.82,25.82,0,0,1,9.29,5.83l5-5h2.88l1.44,1.44V83l-1.44,1.44h-2.88L360.47,83l-2.88-7.2Q351,59.27,336,59.27q-8.21,0-13.46,4.47t-5.26,12.09a14,14,0,0,0,1.3,6,15.44,15.44,0,0,0,4.17,5.25,38.85,38.85,0,0,0,7.56,4.83,103.76,103.76,0,0,0,11.45,4.82q15,5.33,21.53,12.74A26.59,26.59,0,0,1,369.83,127.67Z"/><path class="cls-1" d="M453.34,107.51h-2.88L449,106.07l-2.16-8.64-5.76-5.76-8.64-2.88h-5l-1.44.72L425.27,91v55.44l1.43,2.88,4.32,1.44h6.48l1.44,1.44V155l-1.44,1.44h-8.64L417.35,155l-11.52,1.44h-8.64L395.75,155v-2.88l1.44-1.44h6.48l4.32-1.44,1.44-2.88V91l-.72-1.44-1.44-.72h-5l-8.64,2.88-5.76,5.76-2.16,8.64-1.44,1.44h-2.88l-1.44-1.44V83l1.44-1.44L384.23,83H403l14.4,1.44L431.74,83h18.72l2.88-1.44L454.78,83v23Z"/><path class="cls-1" d="M546,135.52a36,36,0,0,1-8.71,12.09,41.48,41.48,0,0,1-13.39,8.06,51.87,51.87,0,0,1-33.7.29,40,40,0,0,1-13-7.41,34.35,34.35,0,0,1-8.56-11.23,32,32,0,0,1-3.1-14V119a36.62,36.62,0,0,1,3.1-15,35.61,35.61,0,0,1,8.71-12.09,41.57,41.57,0,0,1,13.39-8.07,52,52,0,0,1,33.69-.29,40,40,0,0,1,13,7.42A34.68,34.68,0,0,1,546,102.11a31.88,31.88,0,0,1,3.09,14v4.32A36.78,36.78,0,0,1,546,135.52ZM530.38,119q0-15.12-5.33-23t-13.39-8.93l-3.6-.43h-1.44l-3.6.43q-8.07,1-13.39,8.93t-5.33,23v1.44q0,15.12,5.33,23T503,152.43l3.6.44h1.44l3.6-.44q8.05-1,13.39-8.92t5.33-23Z"/><path class="cls-1" d="M652.05,88.79h-5l-4.32,1.44-1.44,2.88v63.36l-1.44,1.44h-2.88l-2.88-1.44L584.37,98.58l-2.45-3.74.29,5.18v46.37l1.44,2.88,4.32,1.44h6.48l1.44,1.44V155l-1.44,1.44h-7.2L578.61,155,570,156.47h-6.48L562.05,155v-2.88l1.44-1.44h5.76l4.32-1.44,1.44-2.88V93.11l-1.44-2.88-4.32-1.44h-5.76l-1.44-1.44V84.47L563.49,83h5.76l8.64.72,8.64-.72h3.6L593,84.47l38.88,44.93,2.45,3.74-.29-5.18V93.11l-1.44-2.88-4.32-1.44h-6.48l-1.44-1.44V84.47L621.81,83H629l8.64,1.44L646.29,83h5.76l1.44,1.44v2.88Z"/><path class="cls-1" d="M734.84,157.91,732,156.47h-32.4L685.16,155l-11.52,1.44h-7.92L664.28,155v-2.88l1.44-1.44h5.76l4.32-1.44,1.44-2.88V93.11l-1.44-2.88-4.32-1.44h-5.76l-1.44-1.44V84.47L665.72,83h7.92l11.52,1.44L699.56,83H729.8l2.88-1.44L734.12,83v22.32l-1.44,1.44H729.8l-1.44-1.44-2.16-8.64L720.44,91l-8.64-2.16h-13l-4.32,1.44-1.44,2.88v20.45l.72,1.44h7.92l7.2-3.6,2.16-6.48v-2.45l1.44-1.44h2.88l1.44,1.44v7.92l-.72,7.2.72,7.2v7.92l-1.44,1.44h-2.88l-1.44-1.44v-2.45l-2.16-6.48-7.2-3.6H693.8l-.72,1.44v24.77l1.44,2.88,4.32,1.44h12.24l11.52-2.88,5.76-5.76L730.52,132l1.44-1.44h2.88l1.44,1.44v24.48Z"/><path class="cls-2" d="M877.39,156.47H868L856.51,155,845,156.47h-9.36L834.19,155v-2.88l1.44-1.44h5l5.76-1.44,1.44-2.88V71.51l.43-5.76-35,85-.72,2.73-1.44,1.44H809l-1.44-1.44-.72-2.73L772,65.75l.29,5.76v72.72l2.16,4.32,5.76,2.16h5l1.43,1.44V155l-1.43,1.44H778L768,155l-10.08,1.44H751.4L750,155v-2.88l1.44-1.44h5.76l5.76-2.16,2.16-4.32V65.75l-1.44-2.88-5.76-1.44H751.4L750,60V57.11l1.44-1.44h7.92l11.52.72,11.52-.72H785l1.72,1.73L814,124.07l1.44,4.32,1.44-4.32L844.27,57.4,846,55.67h2.59l10.08.72,10.08-.72h8.64l1.44,1.44V60l-1.44,1.44h-5.76l-5.76,1.44-1.44,2.88v80.64l1.44,2.88,5.76,1.44h5.76l1.44,1.44V155Z"/><path class="cls-2" d="M969.33,135.52a35.87,35.87,0,0,1-8.72,12.09,41.26,41.26,0,0,1-13.39,8.06,51.84,51.84,0,0,1-33.69.29,40,40,0,0,1-13-7.41A34.52,34.52,0,0,1,892,137.32a32.08,32.08,0,0,1-3.09-14V119A36.78,36.78,0,0,1,892,104a35.88,35.88,0,0,1,8.71-12.09,41.67,41.67,0,0,1,13.39-8.07,52,52,0,0,1,33.7-.29,40,40,0,0,1,13,7.42,34.82,34.82,0,0,1,8.57,11.16,31.88,31.88,0,0,1,3.09,14v4.32A36.78,36.78,0,0,1,969.33,135.52ZM953.7,119q0-15.12-5.33-23T935,87.06l-3.6-.43h-1.44l-3.6.43q-8.05,1-13.39,8.93t-5.33,23v1.44q0,15.12,5.33,23t13.39,8.92l3.6.44h1.44l3.6-.44q8.07-1,13.39-8.92t5.33-23Z"/><path class="cls-2" d="M1071.05,156.47h-7.2a56.65,56.65,0,0,1-7.7-.44,20.89,20.89,0,0,1-5.47-1.44,16.49,16.49,0,0,1-4.32-2.66,40.55,40.55,0,0,1-4.11-4.1q0-13.11-4.1-19.15t-13.89-6.05h-9.36l-.72,1.44v22.32l1.44,2.88,4.32,1.44h5.76l1.44,1.44V155l-1.44,1.44h-7.92L1006.26,155l-11.52,1.44h-7.92L985.38,155v-2.88l1.44-1.44h5.76l4.32-1.44,1.44-2.88V93.11l-1.44-2.88-4.32-1.44h-5.76l-1.44-1.44V84.47L986.82,83h7.92l11.52,1.44,14.4-1.44h10.79a44.2,44.2,0,0,1,11.16,1.37,32.29,32.29,0,0,1,9.15,3.81A21.37,21.37,0,0,1,1058,94a12.18,12.18,0,0,1,2.3,7.06q0,14.25-18.71,18.72l8.63,4.32,3.6,3.6,6.48,19.44,2.16,2.16,4.32,1.44h4.32l1.44,1.44V155Zm-26.64-54a11.68,11.68,0,0,0-5-10.08q-5-3.6-13.67-3.6h-5.76l-4.32,1.44-1.44,2.88v22.75l.72,1.44h9.36q10.79,0,15.47-4.18A13.63,13.63,0,0,0,1044.41,102.47Z"/><g id="Circle_Leaf_Tree" data-name="Circle Leaf Tree"><path class="cls-3" d="M16.83,105.19A95.12,95.12,0,0,1,190.94,53.1a111.52,111.52,0,0,1,15.4,4.56A106.09,106.09,0,0,0,5.86,106.07q0,3.75.26,7.44c3.43-2.93,7-5.72,10.71-8.32Z"/><path class="cls-3" d="M111.93,212.14A106.15,106.15,0,0,0,211.53,69.5a25.48,25.48,0,0,0-9.92,4.82A95.13,95.13,0,1,1,19.15,127.06,32,32,0,0,0,7.68,125.7a106.1,106.1,0,0,0,104.25,86.44Z"/></g><path class="cls-4" d="M129.63,125c21.88,4.95,33.92.89,42.25-7.14,14.92-14.4,13.56-49.68,44.25-52.44-27.9-13.66-56.81-15.34-75.8-2-17.11,12-26.51,37.41-13.75,57.21,4.69-25.55,25.06-58.09,64.27-56.34C139,66.94,125.73,121.54,129.63,125Z"/><path class="cls-5" d="M123.93,159c-23.51,14.33-39.1,14.32-51.93,8.24-23-10.9-35.23-52.47-72-43.66,27.1-26.81,60.07-40.08,87.38-32,22.87,6.77,42.52,29.57,39.47,55.27-.23,1.94,11,21,13.76,31.07-1-1.77-16.89-28.74-18-30.51C105.65,121.26,71,96.09,29,112.38c61.29-17.26,95.25,37.67,95,46.62Z"/></g></g></svg>